<?xml version="1.0" encoding="iso-8859-1"?>
<!-- Generator: Adobe Illustrator 19.0.0, SVG Export Plug-In . SVG Version: 6.00 Build 0)  -->
<svg version="1.1" id="Layer_1" xmlns="http://www.w3.org/2000/svg" xmlns:xlink="http://www.w3.org/1999/xlink" x="0px" y="0px"
	 viewBox="0 0 505.712 505.712" style="enable-background:new 0 0 505.712 505.712;" xml:space="preserve">
<g transform="translate(1 1)">
	<g>
		<g>
			<path d="M79.842,271.618H61.877c-9.881,0-17.965,8.084-17.965,17.965v17.965c0,9.881,8.084,17.965,17.965,17.965h17.965
				c9.881,0,17.965-8.084,17.965-17.965v-17.965C97.807,279.702,89.723,271.618,79.842,271.618z M79.842,307.547H61.877v-17.965
				h17.965V307.547z"/>
			<path d="M205.596,271.618h-17.965c-9.881,0-17.965,8.084-17.965,17.965v17.965c0,9.881,8.084,17.965,17.965,17.965h17.965
				c9.881,0,17.965-8.084,17.965-17.965v-17.965C223.561,279.702,215.477,271.618,205.596,271.618z M205.596,307.547h-17.965
				v-17.965h17.965V307.547z"/>
			<path d="M332.249,73.105c-3.593-3.593-8.084-5.389-12.575-5.389s-8.982,1.797-12.575,5.389l-12.575,12.575
				c-7.186,7.186-7.186,17.965,0,25.151l12.575,12.575c3.593,3.593,8.084,5.389,12.575,5.389s8.982-1.797,12.575-5.389
				l12.575-12.575c3.593-3.593,5.389-8.084,5.389-12.575s-1.796-8.982-5.389-12.575L332.249,73.105z M319.674,110.832
				l-12.575-12.575l12.575-12.575l12.575,12.575L319.674,110.832z"/>
			<path d="M307.098,212.333c3.593,3.593,8.084,5.389,12.575,5.389s8.982-1.797,11.677-5.389l12.576-12.575
				c3.593-3.593,5.389-8.084,5.389-12.575s-1.796-8.982-5.389-12.575l-12.576-12.575c-3.593-3.593-8.084-5.389-12.575-5.389
				s-8.982,1.797-12.575,5.389l-12.575,12.575c-7.186,7.186-7.186,17.965,0,25.151L307.098,212.333z M319.674,174.607l12.575,12.575
				l-12.575,12.575l-12.575-12.575L319.674,174.607z"/>
			<path d="M332.249,264.432c-3.593-3.593-8.084-5.389-12.575-5.389s-8.982,1.797-12.575,5.389l-12.575,12.575
				c-7.186,7.186-7.186,17.965,0,25.151l12.575,12.575c3.593,3.593,8.084,5.389,12.575,5.389s8.982-2.695,12.575-5.389
				l12.575-12.575c7.186-7.186,7.186-17.965,0-25.151L332.249,264.432z M319.674,301.26l-12.575-12.575l12.575-12.575l12.575,12.575
				L319.674,301.26z"/>
			<path d="M205.596,397.372h-17.965c-9.881,0-17.965,8.084-17.965,17.965v17.965c0,9.881,8.084,17.965,17.965,17.965h17.965
				c9.881,0,17.965-8.084,17.965-17.965v-17.965C223.561,405.456,215.477,397.372,205.596,397.372z M205.596,433.302h-17.965
				v-17.965h17.965V433.302z"/>
			<path d="M79.842,397.372H61.877c-9.881,0-17.965,8.084-17.965,17.965v17.965c0,9.881,8.084,17.965,17.965,17.965h17.965
				c9.881,0,17.965-8.084,17.965-17.965v-17.965C97.807,405.456,89.723,397.372,79.842,397.372z M79.842,433.302H61.877v-17.965
				h17.965V433.302z"/>
			<path d="M142.719,334.495h-17.965c-9.881,0-17.965,8.084-17.965,17.965v17.965c0,9.881,8.084,17.965,17.965,17.965h17.965
				c9.881,0,17.965-8.084,17.965-17.965V352.46C160.684,342.579,152.6,334.495,142.719,334.495z M142.719,370.425h-17.965V352.46
				h17.965V370.425z"/>
			<path d="M496.628,174.607l-158.99-158.99c-9.881-10.779-26.947-10.779-37.726,0L141.821,175.505
				c-5.389,4.491-8.084,11.677-8.084,18.863s2.695,13.474,8.084,18.863l13.474,13.474H25.947C10.677,226.705-1,238.382-1,253.653
				v215.579c0,15.27,11.677,26.947,26.947,26.947h215.579c15.27,0,26.947-11.677,26.947-26.947V339.563l32.337,31.759
				c5.389,5.39,11.677,8.084,18.863,8.084c6.288,0,13.474-2.695,18.863-8.084l158.091-158.989
				c5.389-4.491,8.084-11.677,8.084-18.863S502.018,179.997,496.628,174.607z M250.509,469.232c0,5.389-3.593,8.982-8.982,8.982
				H25.947c-5.389,0-8.982-3.593-8.982-8.982V253.653c0-5.389,3.593-8.982,8.982-8.982H173.26h68.267
				c5.389,0,8.982,3.593,8.982,8.982v68.267V469.232z M484.053,199.758L325.961,358.747c-3.593,3.593-8.982,3.593-12.575,0
				l-44.912-44.912v-60.182v0c0-3.34-0.559-6.509-1.592-9.421c-0.738-2.08-1.718-4.029-2.908-5.816
				c-0.476-0.715-0.986-1.404-1.528-2.065c-0.542-0.661-1.116-1.294-1.719-1.898s-1.237-1.177-1.898-1.719
				c-4.628-3.793-10.621-6.028-17.302-6.028h-60.182l-26.947-26.947c-1.797-1.797-2.695-3.593-2.695-6.288s0.898-4.491,2.695-6.288
				l158.99-158.091c3.593-3.593,8.982-3.593,12.575,0l158.091,158.091c1.797,1.796,2.695,3.593,2.695,6.288
				S485.849,197.961,484.053,199.758z"/>
		</g>
	</g>
</g>
<g>
</g>
<g>
</g>
<g>
</g>
<g>
</g>
<g>
</g>
<g>
</g>
<g>
</g>
<g>
</g>
<g>
</g>
<g>
</g>
<g>
</g>
<g>
</g>
<g>
</g>
<g>
</g>
<g>
</g>
</svg>
